<svg width="48" height="48" viewBox="0 0 48 48" fill="none" xmlns="http://www.w3.org/2000/svg">
<g clip-path="url(#clip0_3893_14915)">
<path d="M41.6746 0.046875H6.32723C2.85976 0.046875 0.0488281 2.85781 0.0488281 6.32527V41.6727C0.0488281 45.1401 2.85976 47.9511 6.32723 47.9511H41.6746C45.1421 47.9511 47.953 45.1401 47.953 41.6727V6.32527C47.953 2.85781 45.1421 0.046875 41.6746 0.046875Z" fill="#211C20"/>
<mask id="mask0_3893_14915" style="mask-type:luminance" maskUnits="userSpaceOnUse" x="8" y="8" width="32" height="32">
<path d="M39.1626 8.77344H8.83789V39.2865H39.1626V8.77344Z" fill="white"/>
</mask>
<g mask="url(#mask0_3893_14915)">
<path d="M11.913 10.2893C12.7046 9.57985 13.7303 9.1875 14.7933 9.1875H29.7913L23.3177 15.6975C21.9668 17.0559 20.1302 17.8197 18.2144 17.8197H14.7933C10.8333 17.8197 8.96396 12.9323 11.913 10.2893Z" fill="#FFC738"/>
<path d="M36.1985 37.757C35.4072 38.4665 34.3812 38.8587 33.3184 38.8587H18.3203L24.7939 32.3489C26.1448 30.9903 27.9814 30.2266 29.8971 30.2266H33.3184C37.2782 30.2266 39.1475 35.114 36.1985 37.757Z" fill="#FFC738"/>
<path d="M32.424 10.1521L10.1149 32.4627C8.61536 33.9623 8.61536 36.3937 10.1149 37.8933C11.6145 39.3929 14.0457 39.3929 15.5452 37.8933L37.8544 15.5827C39.3539 14.0831 39.3539 11.6517 37.8544 10.1521C36.3549 8.65244 33.9236 8.65244 32.424 10.1521Z" fill="#FFC738"/>
</g>
</g>
<defs>
<clipPath id="clip0_3893_14915">
<rect width="48" height="48" fill="white"/>
</clipPath>
</defs>
</svg>
